<mxfile host="app.diagrams.net" agent="Mozilla/5.0 (Windows NT 10.0; Win64; x64) AppleWebKit/537.36 (KHTML, like Gecko) Chrome/131.0.0.0 Safari/537.36" version="25.0.3">
  <diagram name="Página-1" id="6QJ6uyCKeFT1uFdG95DU">
    <mxGraphModel dx="1050" dy="522" grid="1" gridSize="10" guides="1" tooltips="1" connect="1" arrows="1" fold="1" page="1" pageScale="1" pageWidth="827" pageHeight="1169" math="0" shadow="0">
      <root>
        <mxCell id="0" />
        <mxCell id="1" parent="0" />
        <mxCell id="FL7bP5dIJ14nVVjfDYXj-20" value="" style="ellipse;whiteSpace=wrap;html=1;" vertex="1" parent="1">
          <mxGeometry x="25" width="560" height="500" as="geometry" />
        </mxCell>
        <mxCell id="FL7bP5dIJ14nVVjfDYXj-23" value="" style="edgeStyle=orthogonalEdgeStyle;rounded=0;orthogonalLoop=1;jettySize=auto;html=1;" edge="1" parent="1" source="FL7bP5dIJ14nVVjfDYXj-1" target="FL7bP5dIJ14nVVjfDYXj-3">
          <mxGeometry relative="1" as="geometry" />
        </mxCell>
        <mxCell id="FL7bP5dIJ14nVVjfDYXj-1" value="Definição dos Objetivos de Aprendizagem" style="ellipse;whiteSpace=wrap;html=1;" vertex="1" parent="1">
          <mxGeometry x="240" y="40" width="120" height="80" as="geometry" />
        </mxCell>
        <mxCell id="FL7bP5dIJ14nVVjfDYXj-25" value="" style="edgeStyle=orthogonalEdgeStyle;rounded=0;orthogonalLoop=1;jettySize=auto;html=1;" edge="1" parent="1" source="FL7bP5dIJ14nVVjfDYXj-2" target="FL7bP5dIJ14nVVjfDYXj-5">
          <mxGeometry relative="1" as="geometry" />
        </mxCell>
        <mxCell id="FL7bP5dIJ14nVVjfDYXj-2" value="Planejamento das Atividades" style="ellipse;whiteSpace=wrap;html=1;" vertex="1" parent="1">
          <mxGeometry x="430" y="210" width="120" height="80" as="geometry" />
        </mxCell>
        <mxCell id="FL7bP5dIJ14nVVjfDYXj-24" value="" style="edgeStyle=orthogonalEdgeStyle;rounded=0;orthogonalLoop=1;jettySize=auto;html=1;" edge="1" parent="1" source="FL7bP5dIJ14nVVjfDYXj-3" target="FL7bP5dIJ14nVVjfDYXj-2">
          <mxGeometry relative="1" as="geometry" />
        </mxCell>
        <mxCell id="FL7bP5dIJ14nVVjfDYXj-3" value="Escolha da Metodologia Ativa" style="ellipse;whiteSpace=wrap;html=1;" vertex="1" parent="1">
          <mxGeometry x="390" y="80" width="120" height="80" as="geometry" />
        </mxCell>
        <mxCell id="FL7bP5dIJ14nVVjfDYXj-31" value="" style="edgeStyle=orthogonalEdgeStyle;rounded=0;orthogonalLoop=1;jettySize=auto;html=1;" edge="1" parent="1" source="FL7bP5dIJ14nVVjfDYXj-4" target="FL7bP5dIJ14nVVjfDYXj-1">
          <mxGeometry relative="1" as="geometry" />
        </mxCell>
        <mxCell id="FL7bP5dIJ14nVVjfDYXj-4" value="Considerações Finai" style="ellipse;whiteSpace=wrap;html=1;" vertex="1" parent="1">
          <mxGeometry x="80" y="80" width="120" height="80" as="geometry" />
        </mxCell>
        <mxCell id="FL7bP5dIJ14nVVjfDYXj-26" value="" style="edgeStyle=orthogonalEdgeStyle;rounded=0;orthogonalLoop=1;jettySize=auto;html=1;" edge="1" parent="1" source="FL7bP5dIJ14nVVjfDYXj-5" target="FL7bP5dIJ14nVVjfDYXj-8">
          <mxGeometry relative="1" as="geometry" />
        </mxCell>
        <mxCell id="FL7bP5dIJ14nVVjfDYXj-5" value="Preparação dos Recursos" style="ellipse;whiteSpace=wrap;html=1;" vertex="1" parent="1">
          <mxGeometry x="400" y="330" width="120" height="80" as="geometry" />
        </mxCell>
        <mxCell id="FL7bP5dIJ14nVVjfDYXj-29" value="" style="edgeStyle=orthogonalEdgeStyle;rounded=0;orthogonalLoop=1;jettySize=auto;html=1;" edge="1" parent="1" source="FL7bP5dIJ14nVVjfDYXj-6" target="FL7bP5dIJ14nVVjfDYXj-4">
          <mxGeometry relative="1" as="geometry" />
        </mxCell>
        <mxCell id="FL7bP5dIJ14nVVjfDYXj-6" value="Revisão e Ajustes" style="ellipse;whiteSpace=wrap;html=1;" vertex="1" parent="1">
          <mxGeometry x="50" y="210" width="120" height="80" as="geometry" />
        </mxCell>
        <mxCell id="FL7bP5dIJ14nVVjfDYXj-28" value="" style="edgeStyle=orthogonalEdgeStyle;rounded=0;orthogonalLoop=1;jettySize=auto;html=1;" edge="1" parent="1" source="FL7bP5dIJ14nVVjfDYXj-7" target="FL7bP5dIJ14nVVjfDYXj-6">
          <mxGeometry relative="1" as="geometry" />
        </mxCell>
        <mxCell id="FL7bP5dIJ14nVVjfDYXj-7" value="Avaliação e Reflexão" style="ellipse;whiteSpace=wrap;html=1;" vertex="1" parent="1">
          <mxGeometry x="90" y="320" width="120" height="80" as="geometry" />
        </mxCell>
        <mxCell id="FL7bP5dIJ14nVVjfDYXj-27" value="" style="edgeStyle=orthogonalEdgeStyle;rounded=0;orthogonalLoop=1;jettySize=auto;html=1;" edge="1" parent="1" source="FL7bP5dIJ14nVVjfDYXj-8" target="FL7bP5dIJ14nVVjfDYXj-7">
          <mxGeometry relative="1" as="geometry" />
        </mxCell>
        <mxCell id="FL7bP5dIJ14nVVjfDYXj-8" value="Implementação da Aula" style="ellipse;whiteSpace=wrap;html=1;" vertex="1" parent="1">
          <mxGeometry x="245" y="390" width="120" height="80" as="geometry" />
        </mxCell>
      </root>
    </mxGraphModel>
  </diagram>
</mxfile>
